<mxfile host="Electron" modified="2024-04-01T08:58:22.228Z" agent="Mozilla/5.0 (Macintosh; Intel Mac OS X 10_15_7) AppleWebKit/537.36 (KHTML, like Gecko) draw.io/24.1.0 Chrome/120.0.6099.109 Electron/28.1.0 Safari/537.36" etag="NmnK8cGLlq05f4QKUvlp" version="24.1.0" type="device">
  <diagram name="第 1 页" id="a9d8GQ_jOJtV8ZPc3vJD">
    <mxGraphModel dx="1018" dy="1466" grid="1" gridSize="10" guides="1" tooltips="1" connect="1" arrows="1" fold="1" page="1" pageScale="1" pageWidth="3300" pageHeight="4681" math="0" shadow="0">
      <root>
        <mxCell id="0" />
        <mxCell id="1" parent="0" />
        <mxCell id="DXnjJBEjM6-Ge29D7mHB-13" value="" style="rounded=1;whiteSpace=wrap;html=1;" vertex="1" parent="1">
          <mxGeometry x="80" y="260" width="570" height="180" as="geometry" />
        </mxCell>
        <mxCell id="DXnjJBEjM6-Ge29D7mHB-12" value="" style="rounded=1;whiteSpace=wrap;html=1;" vertex="1" parent="1">
          <mxGeometry x="90" y="270" width="420" height="160" as="geometry" />
        </mxCell>
        <mxCell id="DXnjJBEjM6-Ge29D7mHB-11" value="" style="rounded=1;whiteSpace=wrap;html=1;" vertex="1" parent="1">
          <mxGeometry x="100" y="280" width="270" height="140" as="geometry" />
        </mxCell>
        <mxCell id="DXnjJBEjM6-Ge29D7mHB-10" value="" style="rounded=1;whiteSpace=wrap;html=1;" vertex="1" parent="1">
          <mxGeometry x="110" y="290" width="120" height="120" as="geometry" />
        </mxCell>
        <mxCell id="DXnjJBEjM6-Ge29D7mHB-1" value="node&lt;div&gt;0&lt;/div&gt;" style="rounded=1;whiteSpace=wrap;html=1;arcSize=24;fillColor=#dae8fc;strokeColor=#6c8ebf;" vertex="1" parent="1">
          <mxGeometry x="120" y="320" width="40" height="80" as="geometry" />
        </mxCell>
        <mxCell id="DXnjJBEjM6-Ge29D7mHB-3" value="node&lt;div&gt;1&lt;/div&gt;" style="rounded=1;whiteSpace=wrap;html=1;arcSize=24;fillColor=#dae8fc;strokeColor=#6c8ebf;" vertex="1" parent="1">
          <mxGeometry x="180" y="320" width="40" height="80" as="geometry" />
        </mxCell>
        <mxCell id="DXnjJBEjM6-Ge29D7mHB-4" value="node&lt;div&gt;2&lt;/div&gt;" style="rounded=1;whiteSpace=wrap;html=1;arcSize=24;fillColor=#dae8fc;strokeColor=#6c8ebf;" vertex="1" parent="1">
          <mxGeometry x="260" y="320" width="40" height="80" as="geometry" />
        </mxCell>
        <mxCell id="DXnjJBEjM6-Ge29D7mHB-5" value="node&lt;div&gt;3&lt;/div&gt;" style="rounded=1;whiteSpace=wrap;html=1;arcSize=24;fillColor=#dae8fc;strokeColor=#6c8ebf;" vertex="1" parent="1">
          <mxGeometry x="320" y="320" width="40" height="80" as="geometry" />
        </mxCell>
        <mxCell id="DXnjJBEjM6-Ge29D7mHB-6" value="node&lt;div&gt;4&lt;/div&gt;" style="rounded=1;whiteSpace=wrap;html=1;arcSize=24;fillColor=#dae8fc;strokeColor=#6c8ebf;" vertex="1" parent="1">
          <mxGeometry x="400" y="320" width="40" height="80" as="geometry" />
        </mxCell>
        <mxCell id="DXnjJBEjM6-Ge29D7mHB-7" value="node&lt;div&gt;5&lt;/div&gt;" style="rounded=1;whiteSpace=wrap;html=1;arcSize=24;fillColor=#dae8fc;strokeColor=#6c8ebf;" vertex="1" parent="1">
          <mxGeometry x="460" y="320" width="40" height="80" as="geometry" />
        </mxCell>
        <mxCell id="DXnjJBEjM6-Ge29D7mHB-8" value="node&lt;div&gt;6&lt;/div&gt;" style="rounded=1;whiteSpace=wrap;html=1;arcSize=24;fillColor=#dae8fc;strokeColor=#6c8ebf;" vertex="1" parent="1">
          <mxGeometry x="540" y="320" width="40" height="80" as="geometry" />
        </mxCell>
        <mxCell id="DXnjJBEjM6-Ge29D7mHB-9" value="node&lt;div&gt;7&lt;/div&gt;" style="rounded=1;whiteSpace=wrap;html=1;arcSize=24;fillColor=#dae8fc;strokeColor=#6c8ebf;" vertex="1" parent="1">
          <mxGeometry x="600" y="320" width="40" height="80" as="geometry" />
        </mxCell>
        <mxCell id="DXnjJBEjM6-Ge29D7mHB-14" value="NUM_STAGES = 2" style="text;html=1;align=center;verticalAlign=middle;whiteSpace=wrap;rounded=0;" vertex="1" parent="1">
          <mxGeometry x="80" y="220" width="120" height="40" as="geometry" />
        </mxCell>
        <mxCell id="DXnjJBEjM6-Ge29D7mHB-15" value="50 steps" style="text;html=1;align=center;verticalAlign=middle;whiteSpace=wrap;rounded=0;" vertex="1" parent="1">
          <mxGeometry x="160" y="290" width="70" height="30" as="geometry" />
        </mxCell>
        <mxCell id="DXnjJBEjM6-Ge29D7mHB-16" value="50 steps" style="text;html=1;align=center;verticalAlign=middle;whiteSpace=wrap;rounded=0;" vertex="1" parent="1">
          <mxGeometry x="290" y="280" width="70" height="30" as="geometry" />
        </mxCell>
        <mxCell id="DXnjJBEjM6-Ge29D7mHB-17" value="50 steps" style="text;html=1;align=center;verticalAlign=middle;whiteSpace=wrap;rounded=0;" vertex="1" parent="1">
          <mxGeometry x="440" y="270" width="70" height="30" as="geometry" />
        </mxCell>
        <mxCell id="DXnjJBEjM6-Ge29D7mHB-18" value="50 steps" style="text;html=1;align=center;verticalAlign=middle;whiteSpace=wrap;rounded=0;" vertex="1" parent="1">
          <mxGeometry x="580" y="260" width="70" height="30" as="geometry" />
        </mxCell>
      </root>
    </mxGraphModel>
  </diagram>
</mxfile>
